<svg id="Layer_5" enable-background="new 0 0 64 64" height="512" viewBox="0 0 64 64" width="512" xmlns="http://www.w3.org/2000/svg"><path d="m63 11h-12v-5c0-2.757-2.243-5-5-5h-28c-2.757 0-5 2.243-5 5v5h-12v40h12v7c0 2.757 2.243 5 5 5h28c2.757 0 5-2.243 5-5v-7h12zm-45-8h28c1.654 0 3 1.346 3 3v1h-34v-1c0-1.654 1.346-3 3-3zm-3 6h34v2h-34zm46 4v6h-58v-6zm-15 48h-28c-1.654 0-3-1.346-3-3v-3h34v3c0 1.654-1.346 3-3 3zm3-8h-34v-2h34zm-46-4v-28h58v28z"/><path d="m5 15h2v2h-2z"/><path d="m9 15h2v2h-2z"/><path d="m13 15h2v2h-2z"/><path d="m25.041 57h13.959v2h-13.959z"/><path d="m7 32.56c0 6.689 4.305 12.476 10.713 14.398l.287.086.287-.086c6.408-1.922 10.713-7.709 10.713-14.398v-9.56h-22zm2-7.56h18v7.56c0 5.699-3.604 10.642-9 12.393-5.396-1.751-9-6.694-9-12.393z"/><path d="m17.601 42.665.399.174.399-.174c4.01-1.745 6.601-5.712 6.601-10.105v-5.56h-14v5.56c0 4.393 2.591 8.36 6.601 10.105zm-4.601-13.665h10v3.56c0 3.449-1.948 6.576-5 8.086-3.052-1.51-5-4.637-5-8.086z"/><path d="m57.293 25.293-2.626 2.626c-2.186-2.976-5.7-4.919-9.667-4.919-6.617 0-12 5.383-12 12s5.383 12 12 12 12-5.383 12-12c0-1.914-.462-3.717-1.262-5.324l2.969-2.969zm-2.293 9.707c0 5.514-4.486 10-10 10s-10-4.486-10-10 4.486-10 10-10c3.416 0 6.435 1.724 8.24 4.346l-9.24 9.24-5.293-5.293-1.414 1.414 6.707 6.707 10.237-10.237c.49 1.179.763 2.469.763 3.823z"/></svg>