<svg id="Layer_1" height="512" viewBox="0 0 128 128" width="512" xmlns="http://www.w3.org/2000/svg" data-name="Layer 1"><path d="m121.5 50.17h-35.846v-10.253a1.75 1.75 0 0 0 -1.75-1.75h-39.804a1.75 1.75 0 0 0 -1.75 1.75v10.253h-13.35l-17.19-16.194a1.726 1.726 0 0 0 -1.253-.475 1.749 1.749 0 0 0 -1.222.55l-4.11 4.37a1.749 1.749 0 0 0 .075 2.473l9.842 9.276h-8.642a1.75 1.75 0 0 0 -1.75 1.75v6a1.75 1.75 0 0 0 1.75 1.75h16.22v9.225a13.242 13.242 0 1 0 17.869 14.105h46.822a13.243 13.243 0 1 0 17.87-14.105v-9.225h16.219a1.75 1.75 0 0 0 1.75-1.75v-6a1.75 1.75 0 0 0 -1.75-1.75zm-75.654-8.5h36.308v8.5h-36.308zm-36.874-2.125 1.713-1.821 13.215 12.446h-3.656zm17.248 20.125h2.5v8.393c-.412-.039-.829-.063-1.251-.063s-.837.025-1.249.063zm69.56 0v9.23a13.269 13.269 0 0 0 -8.37 10.6h-46.821a13.268 13.268 0 0 0 -8.369-10.6v-9.23zm-68.311 31.33a9.75 9.75 0 1 1 9.75-9.75 9.761 9.761 0 0 1 -9.75 9.75zm82.813-9.75a9.75 9.75 0 1 1 -9.75-9.75 9.761 9.761 0 0 1 9.749 9.75zm-8.5-13.187c-.412-.039-.827-.063-1.249-.063s-.839.025-1.251.063v-8.393h2.5zm17.968-11.893h-111.5v-2.5h111.5z"/></svg>